<?xml version="1.0" ?>
<svg viewBox="0 0 140 140" xmlns="http://www.w3.org/2000/svg">
	<defs><style>.cls-1{fill:#D1D7E4;}</style></defs><title/>
	<g id="Layer_39">
		<path d="M112.137 80.731c-3.535 0-6.906.682-10.02 1.876L85.465 66.355l30.611-29.879c5.54-5.407 10.029-16.067 10.029-23.808v-1.983c0-7.741-4.489-9.633-10.029-4.227L70.085 51.346 24.095 6.459c-5.541-5.407-10.032-3.515-10.032 4.227v1.979c0 7.741 4.492 18.401 10.032 23.808l30.609 29.874-16.651 16.254a27.968 27.968 0 00-10.019-1.869C12.549 80.731 0 93.277 0 108.767c0 15.481 12.549 28.027 28.034 28.027 15.482 0 28.034-12.546 28.034-28.027 0-4.052-.876-7.885-2.417-11.362l16.435-16.043L86.52 97.405a27.943 27.943 0 00-2.416 11.362c0 15.481 12.549 28.027 28.034 28.027 15.481 0 28.034-12.546 28.034-28.027-.001-15.49-12.553-28.036-28.035-28.036zm-84.103 42.045c-7.741 0-14.017-6.27-14.017-14.01 0-7.748 6.276-14.018 14.017-14.018s14.017 6.27 14.017 14.018c0 7.741-6.276 14.01-14.017 14.01zm84.103 0c-7.741 0-14.018-6.27-14.018-14.01 0-7.748 6.276-14.018 14.018-14.018s14.018 6.27 14.018 14.018c0 7.741-6.277 14.01-14.018 14.01z" fill="#D1D7E4"/>
	</g></svg>