<?xml version="1.0" ?>
<svg viewBox="0 0 45 45" fill="none" xmlns="http://www.w3.org/2000/svg">
	<path d="M44.257 7.91647C44.257 7.42196 44.0929 7.00958 43.7628 6.67991L38.3198 1.23696C37.99 0.906998 37.5779 0.742065 37.0829 0.742065C36.5876 0.742065 36.1758 0.906998 35.8459 1.23696L0.494893 36.5878C0.164547 36.918 0 37.3305 0 37.8253C0 38.3203 0.164547 38.7321 0.494893 39.0623L5.93765 44.5048C6.268 44.835 6.6798 44.9998 7.17489 44.9998C7.66949 44.9998 8.08177 44.8358 8.41183 44.5048L43.7632 9.1537C44.0929 8.82345 44.257 8.41156 44.257 7.91647ZM31.9695 15.971L29.0284 13.0296L37.0826 4.97513L40.0236 7.91647L31.9695 15.971Z" fill="#D1D7E4"/>
	<path d="M6.29535 7.03703L7.11991 4.34324L9.81361 3.51867L7.11991 2.69392L6.29535 0.00012207L5.47059 2.69392L2.77679 3.51867L5.47059 4.34324L6.29535 7.03703Z" fill="#D1D7E4"/>
	<path d="M13.442 10.4461L15.0916 15.8342L16.7412 10.4461L22.1291 8.79652L16.7412 7.14711L15.0916 1.75903L13.442 7.14711L8.05414 8.79652L13.442 10.4461Z" fill="#D1D7E4"/>
	<path d="M42.3058 20.2867L41.4814 17.593L40.657 20.2867L37.963 21.1114L40.657 21.936L41.4814 24.6295L42.3058 21.936L45 21.1114L42.3058 20.2867Z" fill="#D1D7E4"/>
	<path d="M23.8883 7.03703L24.7131 4.34324L27.4067 3.51867L24.7131 2.69392L23.8883 0.00012207L23.0639 2.69392L20.3699 3.51867L23.0639 4.34324L23.8883 7.03703Z" fill="#D1D7E4"/>
</svg>
