<svg width="55" height="55" viewBox="0 0 55 55" fill="none" xmlns="http://www.w3.org/2000/svg">
    <path d="M34.375 48.125L38.9583 48.125L38.9583 43.5417L34.375 43.5417L34.375 48.125ZM43.5417 20.625L48.125 20.625L48.125 16.0416L43.5417 16.0416L43.5417 20.625ZM6.87501 11.4583L6.875 43.5416C6.875 46.0625 8.9375 48.125 11.4583 48.125L20.625 48.125L20.625 43.5416L11.4583 43.5416L11.4583 11.4583L20.625 11.4583L20.625 6.87497L11.4583 6.87497C8.93751 6.87497 6.87501 8.93747 6.87501 11.4583ZM43.5417 6.87498L43.5417 11.4583L48.125 11.4583C48.125 8.93748 46.0625 6.87498 43.5417 6.87498ZM25.2083 52.7083L29.7917 52.7083L29.7917 2.29164L25.2083 2.29164L25.2083 52.7083ZM43.5417 38.9583L48.125 38.9583L48.125 34.375L43.5417 34.375L43.5417 38.9583ZM34.375 11.4583L38.9583 11.4583L38.9583 6.87498L34.375 6.87498L34.375 11.4583ZM43.5417 29.7916L48.125 29.7917L48.125 25.2083L43.5417 25.2083L43.5417 29.7916ZM43.5417 48.125C46.0625 48.125 48.125 46.0625 48.125 43.5417L43.5417 43.5417L43.5417 48.125Z" fill="white"/>
</svg>
