<svg width="55" height="55" viewBox="0 0 55 55" fill="none" xmlns="http://www.w3.org/2000/svg">
    <path d="M7.58333 34.5L7.58333 39.0833L12.1667 39.0833L12.1667 34.5L7.58333 34.5ZM35.0833 43.6667L35.0833 48.25L39.6667 48.25L39.6667 43.6667L35.0833 43.6667ZM44.25 7L12.1667 7C9.64583 7 7.58333 9.0625 7.58333 11.5833L7.58333 20.75L12.1667 20.75L12.1667 11.5833L44.25 11.5833L44.25 20.75L48.8333 20.75L48.8333 11.5833C48.8333 9.0625 46.7708 7 44.25 7ZM48.8333 43.6667L44.25 43.6667L44.25 48.25C46.7708 48.25 48.8333 46.1875 48.8333 43.6667ZM3 25.3333L3 29.9167L53.4167 29.9167L53.4167 25.3333L3 25.3333ZM16.75 43.6667L16.75 48.25L21.3333 48.25L21.3333 43.6667L16.75 43.6667ZM44.25 34.5L44.25 39.0833L48.8333 39.0833L48.8333 34.5L44.25 34.5ZM25.9167 43.6667L25.9167 48.25L30.5 48.25L30.5 43.6667L25.9167 43.6667ZM7.58333 43.6667C7.58333 46.1875 9.64583 48.25 12.1667 48.25L12.1667 43.6667L7.58333 43.6667Z" fill="white"/>
</svg>
