<svg width="58" height="50" viewBox="0 0 58 50" fill="none" xmlns="http://www.w3.org/2000/svg">
    <path d="M27.8414 12.4953L29 15.3561L30.1586 12.4953C30.4712 11.7234 30.8077 10.9963 31.1651 10.3126L30.0572 9.73359C30.8897 8.14075 31.8358 6.75894 32.8645 5.57696L33.8074 6.39754C34.8987 5.14354 36.0815 4.13926 37.311 3.36295L36.6437 2.306C38.129 1.36818 39.6895 0.728892 41.2626 0.365545L41.5439 1.58348C43.0724 1.23044 44.611 1.16334 46.0913 1.3555L46.2522 0.115906C47.9312 0.333864 49.5447 0.855695 51.0098 1.65148L50.4131 2.74989C51.7378 3.46944 52.9261 4.43466 53.9053 5.61796L54.8683 4.82108C55.9026 6.07104 56.727 7.54236 57.2699 9.20921L56.0813 9.59628C56.5243 10.9566 56.7657 12.4731 56.7492 14.1336L57.9991 14.146C57.9837 15.6985 57.7591 17.3551 57.2917 19.1037L56.0841 18.781C55.703 20.207 55.1481 21.7093 54.3941 23.2805L55.521 23.8213C54.8494 25.2209 54.03 26.6648 53.0493 28.1481L52.0066 27.4587C51.1625 28.7354 50.1922 30.0469 49.0851 31.3897L50.0496 32.1848C49.0369 33.4132 47.9153 34.6637 46.678 35.9339L45.7826 35.0616C44.6876 36.1857 43.4984 37.3276 42.2096 38.4852L43.045 39.4151C41.8538 40.4852 40.5806 41.567 39.2218 42.6592L38.4386 41.6849C37.204 42.6773 35.8964 43.6795 34.5129 44.6902L35.2503 45.6995C33.9501 46.6494 32.5847 47.606 31.1517 48.5686L30.4547 47.5309C29.9775 47.8514 29.4926 48.1727 29 48.4946C28.5074 48.1727 28.0225 47.8514 27.5453 47.5309L26.8483 48.5686C25.4153 47.606 24.0499 46.6494 22.7497 45.6995L23.4871 44.6902C22.1036 43.6795 20.796 42.6773 19.5614 41.6849L18.7782 42.6592C17.4194 41.567 16.1462 40.4852 14.9551 39.4151L15.7904 38.4852C14.5016 37.3276 13.3124 36.1857 12.2174 35.0616L11.322 35.9339C10.0847 34.6637 8.9631 33.4132 7.95037 32.1848L8.91486 31.3897C7.8078 30.0469 6.83748 28.7354 5.99345 27.4588L4.95074 28.1481C3.97001 26.6648 3.1506 25.2209 2.47898 23.8213L3.60594 23.2805C2.85192 21.7093 2.29701 20.207 1.91586 18.781L0.70825 19.1038C0.24085 17.3551 0.0162939 15.6985 0.000856877 14.146L1.2508 14.1336C1.23428 12.4731 1.47568 10.9566 1.91869 9.59629L0.730129 9.20922C1.27296 7.54236 2.0974 6.07104 3.13167 4.82109L4.09473 5.61797C5.07386 4.43466 6.26215 3.46945 7.58685 2.7499L6.99021 1.65148C8.45525 0.855697 10.0688 0.333865 11.7478 0.115906L11.9087 1.3555C13.389 1.16334 14.9276 1.23044 16.4561 1.58348L16.7374 0.365545C18.3105 0.728892 19.871 1.36818 21.3563 2.306L20.689 3.36295C21.9185 4.13926 23.1013 5.14354 24.1926 6.39754L25.1355 5.57696C26.1642 6.75894 27.1103 8.14075 27.9428 9.7336L26.8349 10.3126C27.1923 10.9963 27.5288 11.7234 27.8414 12.4953Z" stroke="#D1D7E4" stroke-width="2.5" stroke-dasharray="5 5"/>
</svg>
