<?xml version="1.0" encoding="UTF-8" standalone="no"?>
<!DOCTYPE svg PUBLIC "-//W3C//DTD SVG 1.1//EN" "http://www.w3.org/Graphics/SVG/1.1/DTD/svg11.dtd">
<svg version="1.1" xmlns="http://www.w3.org/2000/svg" xmlns:xlink="http://www.w3.org/1999/xlink" preserveAspectRatio="xMidYMid meet" viewBox="0 0 640 640" width="640" height="640"><defs><path d="M318.93 532.27C202.67 532.27 106.67 437.33 106.67 320C106.67 202.67 201.6 107.73 318.93 107.73C407.47 107.73 483.2 163.2 514.13 249.6C511.25 250.67 488.21 259.2 485.33 260.27C458.67 185.6 394.67 138.67 318.93 138.67C218.67 138.67 137.6 219.73 137.6 320C137.6 420.27 218.67 501.33 318.93 501.33C389.33 501.33 454.4 459.73 484.27 395.73C487.04 397.01 509.23 407.25 512 408.53C477.87 484.27 402.13 532.27 318.93 532.27" id="d36Eyj5b6"></path><path d="M401.07 270.93L401.07 237.87L500.27 237.87L500.27 139.73L533.33 139.73L533.33 270.93L401.07 270.93" id="dsN6ULlBN"></path></defs><g><g><g><use xlink:href="#d36Eyj5b6" opacity="1" fill="#d1d7e4" fill-opacity="1"></use><g><use xlink:href="#d36Eyj5b6" opacity="1" fill-opacity="0" stroke="#000000" stroke-width="1" stroke-opacity="0"></use></g></g><g><use xlink:href="#dsN6ULlBN" opacity="1" fill="#d1d7e4" fill-opacity="1"></use><g><use xlink:href="#dsN6ULlBN" opacity="1" fill-opacity="0" stroke="#000000" stroke-width="1" stroke-opacity="0"></use></g></g></g></g></svg>