<?xml version="1.0" encoding="UTF-8" standalone="no"?>
<!DOCTYPE svg PUBLIC "-//W3C//DTD SVG 1.1//EN" "http://www.w3.org/Graphics/SVG/1.1/DTD/svg11.dtd">
<svg version="1.1" xmlns="http://www.w3.org/2000/svg" xmlns:xlink="http://www.w3.org/1999/xlink" preserveAspectRatio="xMidYMid meet" viewBox="0 0 640 640" width="640" height="640"><defs><path d="M321.07 532.27C437.33 532.27 533.33 437.33 533.33 320C533.33 202.67 438.4 107.73 321.07 107.73C232.53 107.73 156.8 163.2 125.87 249.6C128.75 250.67 151.79 259.2 154.67 260.27C181.33 185.6 245.33 138.67 321.07 138.67C421.33 138.67 502.4 219.73 502.4 320C502.4 420.27 421.33 501.33 321.07 501.33C250.67 501.33 185.6 459.73 155.73 395.73C152.96 397.01 130.77 407.25 128 408.53C162.13 484.27 237.87 532.27 321.07 532.27" id="n5swJU42"></path><path d="M238.93 270.93L238.93 237.87L139.73 237.87L139.73 139.73L106.67 139.73L106.67 270.93L238.93 270.93" id="egS0q3VsX"></path></defs><g><g><g><use xlink:href="#n5swJU42" opacity="1" fill="#d1d7e4" fill-opacity="1"></use><g><use xlink:href="#n5swJU42" opacity="1" fill-opacity="0" stroke="#000000" stroke-width="1" stroke-opacity="0"></use></g></g><g><use xlink:href="#egS0q3VsX" opacity="1" fill="#d1d7e4" fill-opacity="1"></use><g><use xlink:href="#egS0q3VsX" opacity="1" fill-opacity="0" stroke="#000000" stroke-width="1" stroke-opacity="0"></use></g></g></g></g></svg>