<svg width="32" height="35" viewBox="0 0 32 35" fill="none" xmlns="http://www.w3.org/2000/svg">
    <path d="M29.6414 0H2.31197C1.05599 0 0 0.983096 0 2.26203V2.60791C0 2.65795 0 2.65795 0 2.65795V5.85299V5.90303V10.7684C0 11.9973 1.0048 13.0305 2.31197 13.0305H6.37765C7.63362 13.0305 8.68962 12.0474 8.68962 10.7684V8.45635H11.6017V26.3979H8.38725C7.18242 26.3979 6.17762 27.381 6.17762 28.5598V32.788C6.17762 33.9668 7.18242 34.9499 8.38725 34.9499H12.3041C12.3552 34.9499 12.453 35 12.5553 35H19.3889C19.4912 35 19.5377 35 19.5889 34.9499H23.4081C24.6129 34.9499 25.6177 33.9668 25.6177 32.788V28.6099C25.6177 27.4311 24.6129 26.448 23.4081 26.448H20.2913V8.50649H23.3057V10.8186C23.3057 12.0474 24.3105 13.0806 25.6177 13.0806H29.688C30.944 13.0806 32 12.0975 32 10.8186V2.26203C31.9534 1.03314 30.8975 0 29.6414 0ZM30.0927 10.814C30.0927 11.0598 29.8927 11.2555 29.6415 11.2555H25.5712C25.32 11.2555 25.12 11.0598 25.12 10.814V7.61897C25.12 7.12742 24.7199 6.73601 24.2175 6.73601H19.3424C18.84 6.73601 18.4399 7.12742 18.4399 7.61897V27.381C18.4399 27.8725 18.84 28.2639 19.3424 28.2639H23.4127C23.6128 28.2639 23.7662 28.4096 23.7662 28.6098V32.788C23.7662 32.9837 23.6174 33.1338 23.4127 33.1338H19.3424C19.24 33.1338 19.1936 33.1338 19.0912 33.1839H12.76C12.7088 33.1839 12.6111 33.1338 12.5088 33.1338H8.34076C8.14073 33.1338 7.98724 32.9882 7.98724 32.788V28.6098C7.98724 28.4141 8.13612 28.2639 8.34076 28.2639H12.5088C13.0112 28.2639 13.4112 27.8725 13.4112 27.381V7.57348C13.4112 7.08194 13.0112 6.69052 12.5088 6.69052H7.73596C7.23356 6.69052 6.83351 7.08194 6.83351 7.57348V10.7685C6.83351 11.0143 6.63348 11.21 6.3823 11.21H2.31197C2.06074 11.21 1.86071 11.0143 1.86071 10.7685V5.85304V5.803V2.70804C1.86071 2.658 1.86071 2.658 1.86071 2.658V2.26659C1.86071 2.02084 2.06074 1.82513 2.31197 1.82513H29.6415C29.8927 1.82513 30.0927 2.02084 30.0927 2.26659V10.814Z" fill="#D1D7E4"/>
</svg>
